<svg
        xmlns="http://www.w3.org/2000/svg">
    <defs>
        <path id="stumbleupon-path-1" d="M0,0.0749333333 L31.9250667,0.0749333333 L31.9250667,31.984 L0,31.984"/>
    </defs>
    <symbol viewBox="0 0 24 24" id="icon-add">
        <path d="M19 13h-6v6h-2v-6H5v-2h6V5h2v6h6v2z"/>
    </symbol>
    <symbol viewBox="0 0 20 19" id="icon-admin-brush">
        <path d="M5 12C3.34 12 2 13.34 2 15C2 16.31 0.84 17 0 17C0.92 18.22 2.49 19 4 19C6.21 19 8 17.21 8 15C8 13.34 6.66 12 5 12ZM18.71 2.63L17.37 1.29C16.98 0.899999 16.35 0.899999 15.96 1.29L7 10.25L9.75 13L18.71 4.04C19.1 3.65 19.1 3.02 18.71 2.63Z" fill="#3E67F8"/>
    </symbol>
    <symbol viewBox="0 0 12 8" id="icon-admin-close">
        <path d="M5.28997 0.70998L0.699971 5.29998C0.309971 5.68998 0.309971 6.31998 0.699971 6.70998C1.08997 7.09998 1.71997 7.09998 2.10997 6.70998L5.99997 2.82998L9.87997 6.70998C10.27 7.09998 10.9 7.09998 11.29 6.70998C11.68 6.31998 11.68 5.68998 11.29 5.29998L6.69997 0.70998C6.31997 0.31998 5.67997 0.31998 5.28997 0.70998Z" fill="#5E637A"/>
    </symbol>
    <symbol viewBox="0 0 19 19" id="icon-admin-edit">
        <path d="M0 15.46V18.5C0 18.78 0.22 19 0.5 19H3.54C3.67 19 3.8 18.95 3.89 18.85L14.81 7.94L11.06 4.19L0.15 15.1C0.0500001 15.2 0 15.32 0 15.46ZM17.71 5.04C18.1 4.65 18.1 4.02 17.71 3.63L15.37 1.29C14.98 0.899999 14.35 0.899999 13.96 1.29L12.13 3.12L15.88 6.87L17.71 5.04Z" fill="#3E67F8"/>
    </symbol>
    <symbol viewBox="0 0 18 18" id="icon-admin-link">
        <path d="M15 16H3C2.45 16 2 15.55 2 15V3C2 2.45 2.45 2 3 2H8C8.55 2 9 1.55 9 1C9 0.45 8.55 0 8 0H2C0.89 0 0 0.9 0 2V16C0 17.1 0.9 18 2 18H16C17.1 18 18 17.1 18 16V10C18 9.45 17.55 9 17 9C16.45 9 16 9.45 16 10V15C16 15.55 15.55 16 15 16ZM11 1C11 1.55 11.45 2 12 2H14.59L5.46 11.13C5.07 11.52 5.07 12.15 5.46 12.54C5.85 12.93 6.48 12.93 6.87 12.54L16 3.41V6C16 6.55 16.45 7 17 7C17.55 7 18 6.55 18 6V0H12C11.45 0 11 0.45 11 1Z" fill="#3E67F8"/>
    </symbol>
    <symbol viewBox="0 0 20 20" id="icon-admin-tooltip">
        <path d="M10 0C4.48 0 0 4.48 0 10C0 15.52 4.48 20 10 20C15.52 20 20 15.52 20 10C20 4.48 15.52 0 10 0ZM10 15C9.45 15 9 14.55 9 14V10C9 9.45 9.45 9 10 9C10.55 9 11 9.45 11 10V14C11 14.55 10.55 15 10 15ZM11 7H9V5H11V7Z" fill="#5E637A"/>
    </symbol>
    <symbol viewBox="0 0 36 36" id="icon-arrow-down">
        <path d="M16.5 6v18.26l-8.38-8.38-2.12 2.12 12 12 12-12-2.12-2.12-8.38 8.38v-18.26h-3z"/>
    </symbol>
    <symbol id="icon-angle-down" xmlns="http://www.w3.org/2000/svg" viewBox="0 0 448 512">
        <path fill="currentColor" d="M207.029 381.476L12.686 187.132c-9.373-9.373-9.373-24.569 0-33.941l22.667-22.667c9.357-9.357 24.522-9.375 33.901-.04L224 284.505l154.745-154.021c9.379-9.335 24.544-9.317 33.901.04l22.667 22.667c9.373 9.373 9.373 24.569 0 33.941L240.971 381.476c-9.373 9.372-24.569 9.372-33.942 0z"></path>
    </symbol>
    <symbol id="icon-angle-up" viewBox="0 0 448 512">
        <path fill="currentColor" d="M240.971 130.524l194.343 194.343c9.373 9.373 9.373 24.569 0 33.941l-22.667 22.667c-9.357 9.357-24.522 9.375-33.901.04L224 227.495 69.255 381.516c-9.379 9.335-24.544 9.317-33.901-.04l-22.667-22.667c-9.373-9.373-9.373-24.569 0-33.941L207.03 130.525c9.372-9.373 24.568-9.373 33.941-.001z" class=""></path>
    </symbol>
    <symbol viewBox="0 0 12 8" id="icon-chevron-down">
        <path fill="currentColor" d="M6 6.174l5.313-4.96.23-.214.457.427-.23.214-5.51 5.146L6.03 7 6 6.972 5.97 7l-.23-.214L.23 1.64 0 1.428.458 1l.23.214L6 6.174z" stroke-linecap="square" fill-rule="evenodd"/>
    </symbol>
    <symbol viewBox="0 0 24 24" id="icon-chevron-left">
        <path d="M15.41 7.41L14 6l-6 6 6 6 1.41-1.41L10.83 12z"/>
    </symbol>
    <symbol viewBox="0 0 24 24" id="icon-chevron-right">
        <path fill="currentColor" d="M10 6L8.59 7.41 13.17 12l-4.58 4.59L10 18l6-6z"/>
    </symbol>
    <symbol viewBox="0 0 24 24" id="icon-close">
        <path d="M19 6.41L17.59 5 12 10.59 6.41 5 5 6.41 10.59 12 5 17.59 6.41 19 12 13.41 17.59 19 19 17.59 13.41 12z"/>
    </symbol>
    <symbol viewBox="0 0 512 512" id="icon-envelope">
        <path fill="currentColor" d="M464 64H48C21.5 64 0 85.5 0 112v288c0 26.5 21.5 48 48 48h416c26.5 0 48-21.5 48-48V112c0-26.5-21.5-48-48-48zM48 96h416c8.8 0 16 7.2 16 16v41.4c-21.9 18.5-53.2 44-150.6 121.3-16.9 13.4-50.2 45.7-73.4 45.3-23.2.4-56.6-31.9-73.4-45.3C85.2 197.4 53.9 171.9 32 153.4V112c0-8.8 7.2-16 16-16zm416 320H48c-8.8 0-16-7.2-16-16V195c22.8 18.7 58.8 47.6 130.7 104.7 20.5 16.4 56.7 52.5 93.3 52.3 36.4.3 72.3-35.5 93.3-52.3 71.9-57.1 107.9-86 130.7-104.7v205c0 8.8-7.2 16-16 16z" class=""></path>
    </symbol>
    <symbol viewBox="0 0 24 24" id="icon-facebook">
        <path fill="currentColor" d="M9 8h-3v4h3v12h5v-12h3.642l.358-4h-4v-1.667c0-.955.192-1.333 1.115-1.333h2.885v-5h-3.808c-3.596 0-5.192 1.583-5.192 4.615v3.385z" />
    </symbol>
    <symbol viewBox="0 0 20 28" id="icon-google">
        <path d="M1.734 21.156q0-1.266 0.695-2.344t1.852-1.797q2.047-1.281 6.312-1.563-0.5-0.641-0.742-1.148t-0.242-1.148q0-0.625 0.328-1.328-0.719 0.063-1.062 0.063-2.312 0-3.898-1.508t-1.586-3.82q0-1.281 0.562-2.484t1.547-2.047q1.188-1.031 2.844-1.531t3.406-0.5h6.516l-2.141 1.375h-2.063q1.172 0.984 1.766 2.078t0.594 2.5q0 1.125-0.383 2.023t-0.93 1.453-1.086 1.016-0.922 0.961-0.383 1.031q0 0.562 0.5 1.102t1.203 1.062 1.414 1.148 1.211 1.625 0.5 2.219q0 1.422-0.766 2.703-1.109 1.906-3.273 2.805t-4.664 0.898q-2.063 0-3.852-0.648t-2.695-2.148q-0.562-0.922-0.562-2.047zM4.641 20.438q0 0.875 0.367 1.594t0.953 1.18 1.359 0.781 1.563 0.453 1.586 0.133q0.906 0 1.742-0.203t1.547-0.609 1.141-1.141 0.43-1.703q0-0.391-0.109-0.766t-0.227-0.656-0.422-0.648-0.461-0.547-0.602-0.539-0.57-0.453-0.648-0.469-0.57-0.406q-0.25-0.031-0.766-0.031-0.828 0-1.633 0.109t-1.672 0.391-1.516 0.719-1.070 1.164-0.422 1.648zM6.297 4.906q0 0.719 0.156 1.523t0.492 1.609 0.812 1.445 1.172 1.047 1.508 0.406q0.578 0 1.211-0.258t1.023-0.68q0.828-0.875 0.828-2.484 0-0.922-0.266-1.961t-0.75-2.016-1.313-1.617-1.828-0.641q-0.656 0-1.289 0.305t-1.039 0.82q-0.719 0.922-0.719 2.5z"/>
    </symbol>
    <symbol viewBox="0 0 32 32" id="icon-instagram">
        <path fill="currentColor" d="M25.522709,13.5369502 C25.7256898,14.3248434 25.8455558,15.1480745 25.8455558,15.9992932 C25.8455558,21.4379334 21.4376507,25.8455558 15.9998586,25.8455558 C10.5623493,25.8455558 6.15416148,21.4379334 6.15416148,15.9992932 C6.15416148,15.1480745 6.27459295,14.3248434 6.4775737,13.5369502 L3.6915357,13.5369502 L3.6915357,27.0764447 C3.6915357,27.7552145 4.24280653,28.3062027 4.92355534,28.3062027 L27.0764447,28.3062027 C27.7571935,28.3062027 28.3084643,27.7552145 28.3084643,27.0764447 L28.3084643,13.5369502 L25.522709,13.5369502 Z M27.0764447,3.6915357 L23.384909,3.6915357 C22.7050083,3.6915357 22.1543028,4.24280653 22.1543028,4.92214183 L22.1543028,8.61509104 C22.1543028,9.29442633 22.7050083,9.84569717 23.384909,9.84569717 L27.0764447,9.84569717 C27.7571935,9.84569717 28.3084643,9.29442633 28.3084643,8.61509104 L28.3084643,4.92214183 C28.3084643,4.24280653 27.7571935,3.6915357 27.0764447,3.6915357 Z M9.84597988,15.9992932 C9.84597988,19.3976659 12.6009206,22.1537374 15.9998586,22.1537374 C19.3987967,22.1537374 22.1543028,19.3976659 22.1543028,15.9992932 C22.1543028,12.6003551 19.3987967,9.84569717 15.9998586,9.84569717 C12.6009206,9.84569717 9.84597988,12.6003551 9.84597988,15.9992932 Z M3.6915357,31.9997173 C1.65296441,31.9997173 0,30.3461875 0,28.3062027 L0,3.6915357 C0,1.6526817 1.65296441,0 3.6915357,0 L28.3084643,0 C30.3473183,0 32,1.6526817 32,3.6915357 L32,28.3062027 C32,30.3461875 30.3473183,31.9997173 28.3084643,31.9997173 L3.6915357,31.9997173 Z" id="instagram-Imported-Layers"/>
    </symbol>
    <symbol viewBox="0 0 24 24" id="icon-keyboard-arrow-down">
        <path d="M7.41 7.84L12 12.42l4.59-4.58L18 9.25l-6 6-6-6z"/>
    </symbol>
    <symbol viewBox="0 0 24 24" id="icon-keyboard-arrow-up">
        <path d="M7.41 15.41L12 10.83l4.59 4.58L18 14l-6-6-6 6z"/>
    </symbol>
    <symbol viewBox="0 0 32 32" id="icon-linkedin">
        <path d="M27.2684444,27.2675556 L22.5226667,27.2675556 L22.5226667,19.8408889 C22.5226667,18.0702222 22.4924444,15.792 20.0568889,15.792 C17.5866667,15.792 17.2097778,17.7217778 17.2097778,19.7146667 L17.2097778,27.2675556 L12.4693333,27.2675556 L12.4693333,11.9964444 L17.0186667,11.9964444 L17.0186667,14.0844444 L17.0844444,14.0844444 C17.7173333,12.8835556 19.2657778,11.6177778 21.5742222,11.6177778 C26.3804444,11.6177778 27.2684444,14.7795556 27.2684444,18.8924444 L27.2684444,27.2675556 L27.2684444,27.2675556 Z M7.11822222,9.91022222 C5.59377778,9.91022222 4.36444444,8.67733333 4.36444444,7.15733333 C4.36444444,5.63822222 5.59377778,4.40533333 7.11822222,4.40533333 C8.63644444,4.40533333 9.86844444,5.63822222 9.86844444,7.15733333 C9.86844444,8.67733333 8.63644444,9.91022222 7.11822222,9.91022222 L7.11822222,9.91022222 Z M4.74133333,11.9964444 L9.49244444,11.9964444 L9.49244444,27.2675556 L4.74133333,27.2675556 L4.74133333,11.9964444 Z M29.632,0 L2.36,0 C1.05777778,0 0,1.03288889 0,2.30755556 L0,29.6906667 C0,30.9653333 1.05777778,32 2.36,32 L29.632,32 C30.9368889,32 31.9991111,30.9653333 31.9991111,29.6906667 L31.9991111,2.30755556 C31.9991111,1.03288889 30.9368889,0 29.632,0 L29.632,0 Z" id="linkedin-Fill-4"/>
    </symbol>
    <symbol viewBox="0 0 24 24" id="icon-lock">
        <path d="M18 8h-1V6c0-2.76-2.24-5-5-5S7 3.24 7 6v2H6c-1.1 0-2 .9-2 2v10c0 1.1.9 2 2 2h12c1.1 0 2-.9 2-2V10c0-1.1-.9-2-2-2zm-6 9c-1.1 0-2-.9-2-2s.9-2 2-2 2 .9 2 2-.9 2-2 2zm3.1-9H8.9V6c0-1.71 1.39-3.1 3.1-3.1 1.71 0 3.1 1.39 3.1 3.1v2z"/>
    </symbol>
    <symbol viewBox="0 0 176.515 33.863" id="icon-logo-amazonpay">
        <path d=" M 69.652 26.489 C 63.129 31.303 53.672 33.863 45.528 33.863 C 34.115 33.863 23.837 29.644 16.059 22.621 C 15.449 22.069 15.993 21.316 16.727 21.743 C 25.118 26.626 35.496 29.567 46.213 29.567 C 53.443 29.567 61.391 28.066 68.704 24.964 C 69.807 24.497 70.732 25.691 69.652 26.489 Z " fill-rule="evenodd"/>
        <path d=" M 72.367 23.389 C 71.532 22.321 66.852 22.883 64.749 23.135 C 64.112 23.212 64.013 22.655 64.587 22.252 C 68.321 19.629 74.44 20.386 75.151 21.265 C 75.867 22.15 74.962 28.285 71.464 31.212 C 70.925 31.662 70.413 31.422 70.652 30.828 C 71.44 28.861 73.202 24.459 72.367 23.389 Z " fill-rule="evenodd"/>
        <path d=" M 64.897 3.724 L 64.897 1.176 C 64.899 0.788 65.191 0.53 65.543 0.531 L 76.965 0.53 C 77.33 0.53 77.624 0.795 77.624 1.173 L 77.624 3.358 C 77.62 3.725 77.311 4.203 76.764 4.962 L 70.847 13.41 C 73.043 13.359 75.366 13.688 77.362 14.809 C 77.812 15.062 77.933 15.437 77.968 15.804 L 77.968 18.523 C 77.968 18.898 77.558 19.331 77.126 19.106 C 73.611 17.264 68.946 17.063 65.058 19.128 C 64.661 19.34 64.246 18.912 64.246 18.537 L 64.246 15.952 C 64.246 15.539 64.254 14.831 64.671 14.201 L 71.525 4.367 L 65.557 4.366 C 65.192 4.366 64.899 4.106 64.897 3.724 Z " fill-rule="evenodd"/>
        <path d=" M 23.233 19.641 L 19.758 19.641 C 19.427 19.62 19.163 19.372 19.136 19.054 L 19.139 1.219 C 19.139 0.863 19.439 0.578 19.81 0.578 L 23.046 0.577 C 23.384 0.594 23.656 0.85 23.677 1.176 L 23.677 3.504 L 23.743 3.504 C 24.586 1.252 26.175 0.201 28.316 0.201 C 30.489 0.201 31.852 1.252 32.825 3.504 C 33.668 1.252 35.582 0.201 37.625 0.201 C 39.085 0.201 40.674 0.802 41.647 2.153 C 42.75 3.655 42.524 5.831 42.524 7.745 L 42.52 19 C 42.52 19.355 42.221 19.641 41.85 19.641 L 38.38 19.641 C 38.03 19.619 37.756 19.343 37.756 19.001 L 37.755 9.546 C 37.755 8.796 37.82 6.92 37.657 6.207 C 37.398 5.005 36.62 4.667 35.615 4.667 C 34.771 4.667 33.895 5.23 33.538 6.13 C 33.181 7.032 33.214 8.532 33.214 9.546 L 33.214 19 C 33.214 19.355 32.914 19.641 32.544 19.641 L 29.073 19.641 C 28.724 19.619 28.449 19.343 28.449 19.001 L 28.445 9.546 C 28.445 7.557 28.77 4.631 26.305 4.631 C 23.807 4.631 23.905 7.482 23.905 9.546 L 23.903 19 C 23.903 19.355 23.603 19.641 23.233 19.641 Z " fill-rule="evenodd"/>
        <path d=" M 87.488 3.842 C 84.926 3.842 84.764 7.331 84.764 9.508 C 84.764 11.685 84.732 16.339 87.457 16.339 C 90.149 16.339 90.279 12.586 90.279 10.297 C 90.279 8.796 90.213 6.994 89.759 5.568 C 89.37 4.329 88.591 3.842 87.488 3.842 Z  M 87.457 0.201 C 92.614 0.201 95.403 4.631 95.403 10.26 C 95.403 15.7 92.322 20.017 87.457 20.017 C 82.396 20.017 79.639 15.588 79.639 10.072 C 79.639 4.517 82.428 0.201 87.457 0.201 Z " fill-rule="evenodd"/>
        <path d=" M 102.092 19.641 L 98.629 19.641 C 98.282 19.619 98.006 19.343 98.006 19.001 L 98 1.16 C 98.03 0.833 98.318 0.578 98.668 0.578 L 101.891 0.577 C 102.195 0.593 102.445 0.799 102.509 1.076 L 102.509 3.804 L 102.574 3.804 C 103.548 1.364 104.909 0.201 107.309 0.201 C 108.866 0.201 110.391 0.764 111.364 2.303 C 112.272 3.729 112.272 6.13 112.272 7.857 L 112.272 19.08 C 112.234 19.396 111.95 19.641 111.606 19.641 L 108.123 19.641 C 107.801 19.621 107.542 19.384 107.504 19.08 L 107.504 9.397 C 107.504 7.445 107.732 4.592 105.331 4.592 C 104.488 4.592 103.709 5.155 103.32 6.018 C 102.833 7.107 102.768 8.195 102.768 9.397 L 102.768 19 C 102.762 19.355 102.462 19.641 102.092 19.641 Z " fill-rule="evenodd"/>
        <path d=" M 59.294 19.597 C 59.065 19.803 58.734 19.817 58.474 19.678 C 57.32 18.719 57.113 18.276 56.482 17.362 C 54.575 19.305 53.224 19.888 50.753 19.888 C 47.828 19.888 45.552 18.082 45.552 14.472 C 45.552 11.651 47.081 9.733 49.258 8.793 C 51.143 7.965 53.776 7.815 55.792 7.589 L 55.792 7.138 C 55.792 6.309 55.857 5.333 55.369 4.618 C 54.946 3.978 54.134 3.715 53.419 3.715 C 52.093 3.715 50.916 4.394 50.626 5.801 C 50.565 6.114 50.337 6.425 50.023 6.441 L 46.654 6.076 C 46.37 6.011 46.054 5.783 46.135 5.349 C 46.9 1.32 50.498 0.064 53.768 0.03 L 54.026 0.03 C 55.7 0.051 57.838 0.51 59.14 1.759 C 60.831 3.339 60.667 5.445 60.667 7.74 L 60.667 13.153 C 60.667 14.782 61.344 15.496 61.979 16.373 C 62.202 16.69 62.251 17.065 61.968 17.297 C 61.258 17.892 59.997 18.987 59.304 19.605 L 59.294 19.597 Z  M 55.792 11.125 C 55.792 12.479 55.824 13.607 55.142 14.811 C 54.589 15.788 53.711 16.39 52.736 16.39 C 51.404 16.39 50.624 15.375 50.624 13.87 C 50.624 10.91 53.278 10.372 55.792 10.372 L 55.792 11.125 Z " fill-rule="evenodd"/>
        <path d=" M 13.743 19.597 C 13.513 19.803 13.181 19.817 12.922 19.678 C 11.767 18.719 11.56 18.276 10.93 17.362 C 9.022 19.305 7.672 19.888 5.201 19.888 C 2.276 19.888 0 18.082 0 14.472 C 0 11.651 1.527 9.733 3.706 8.793 C 5.591 7.965 8.224 7.815 10.239 7.589 L 10.239 7.138 C 10.239 6.309 10.305 5.333 9.817 4.618 C 9.394 3.978 8.581 3.715 7.867 3.715 C 6.541 3.715 5.362 4.394 5.074 5.801 C 5.014 6.114 4.785 6.425 4.47 6.441 L 1.102 6.076 C 0.817 6.011 0.501 5.783 0.583 5.349 C 1.346 1.32 4.945 0.064 8.216 0.03 L 8.474 0.03 C 10.148 0.051 12.286 0.51 13.588 1.759 C 15.278 3.339 15.115 5.445 15.115 7.74 L 15.115 13.153 C 15.115 14.782 15.792 15.496 16.427 16.373 C 16.648 16.69 16.699 17.065 16.416 17.297 C 15.706 17.892 14.444 18.987 13.751 19.605 L 13.743 19.597 Z  M 10.239 11.125 C 10.239 12.479 10.272 13.607 9.589 14.811 C 9.037 15.788 8.159 16.39 7.183 16.39 C 5.851 16.39 5.071 15.375 5.071 13.87 C 5.071 10.91 7.726 10.372 10.239 10.372 L 10.239 11.125 Z " fill-rule="evenodd"/>
        <path d=" M 159.773 26.039 C 159.773 25.587 159.773 25.181 159.773 24.729 C 159.773 24.356 159.956 24.099 160.345 24.122 C 161.071 24.225 162.098 24.328 162.827 24.178 C 163.779 23.98 164.462 23.305 164.866 22.38 C 165.435 21.078 165.812 20.028 166.05 19.339 L 158.821 1.431 C 158.699 1.127 158.663 0.563 159.27 0.563 L 161.797 0.563 C 162.279 0.563 162.475 0.869 162.583 1.169 L 167.824 15.715 L 172.827 1.169 C 172.929 0.871 173.134 0.563 173.612 0.563 L 175.995 0.563 C 176.598 0.563 176.564 1.126 176.444 1.431 L 169.273 19.898 C 168.345 22.356 167.109 26.271 164.325 26.951 C 162.929 27.316 161.168 27.184 160.134 26.751 C 159.873 26.62 159.773 26.27 159.773 26.039 Z " fill-rule="evenodd"/>
        <path d=" M 156.402 18.55 C 156.402 18.883 156.129 19.156 155.794 19.156 L 154.012 19.156 C 153.627 19.156 153.364 18.878 153.315 18.55 L 153.136 17.337 C 152.317 18.03 151.312 18.639 150.222 19.063 C 148.126 19.877 145.71 20.012 143.662 18.754 C 142.181 17.845 141.395 16.068 141.395 14.235 C 141.395 12.817 141.832 11.411 142.801 10.39 C 144.094 8.995 145.968 8.31 148.231 8.31 C 149.598 8.31 151.554 8.471 152.977 8.936 L 152.977 6.495 C 152.977 4.013 151.932 2.939 149.177 2.939 C 147.071 2.939 145.46 3.257 143.218 3.954 C 142.859 3.966 142.649 3.693 142.649 3.36 L 142.649 1.968 C 142.649 1.634 142.934 1.311 143.243 1.213 C 144.844 0.515 147.112 0.08 149.523 0 C 152.666 0 156.402 0.709 156.402 5.543 L 156.402 18.55 Z  M 152.977 14.986 L 152.977 11.303 C 151.781 10.976 149.802 10.84 149.036 10.84 C 147.826 10.84 146.501 11.126 145.809 11.871 C 145.292 12.417 145.058 13.201 145.058 13.959 C 145.058 14.939 145.397 15.922 146.189 16.408 C 147.109 17.033 148.536 16.957 149.877 16.576 C 151.166 16.21 152.376 15.563 152.977 14.986 Z " fill-rule="evenodd"/>
        <path d=" M 130.127 2.994 C 134.081 2.994 135.158 6.103 135.158 9.663 C 135.18 12.063 134.739 14.203 133.496 15.428 C 132.566 16.345 131.527 16.595 129.963 16.595 C 128.571 16.595 126.74 15.869 125.372 14.858 L 125.372 4.679 C 126.796 3.585 128.613 2.994 130.127 2.994 Z  M 124.766 26.678 L 122.379 26.678 C 122.045 26.678 121.772 26.405 121.772 26.072 C 121.772 17.782 121.772 9.491 121.772 1.201 C 121.772 0.868 122.045 0.595 122.379 0.595 L 124.206 0.595 C 124.59 0.595 124.853 0.873 124.902 1.201 L 125.094 2.504 C 126.805 0.985 129.008 0.011 131.107 0.011 C 136.986 0.011 138.919 4.855 138.919 9.892 C 138.919 15.281 135.962 19.611 130.961 19.611 C 128.855 19.611 126.886 18.834 125.372 17.484 L 125.372 26.072 C 125.372 26.405 125.099 26.678 124.766 26.678 Z " fill-rule="evenodd"/>
    </symbol>
    <symbol viewBox="0 0 70 32" id="icon-logo-american-express">
        <path d="M69.102 17.219l0.399 9.094c-0.688 0.313-3.285 1.688-4.26 1.688h-4.788v-0.656c-0.546 0.438-1.549 0.656-2.467 0.656h-15.053v-2.466c0-0.344-0.057-0.344-0.345-0.344h-0.257v2.81h-4.961v-2.924c-0.832 0.402-1.749 0.402-2.581 0.402h-0.544v2.523h-6.050l-1.434-1.656-1.577 1.656h-9.72v-10.781h9.892l1.405 1.663 1.548-1.663h6.652c0.775 0 2.037 0.115 2.581 0.66v-0.66h5.936c0.602 0 1.749 0.115 2.523 0.66v-0.66h8.946v0.66c0.516-0.43 1.433-0.66 2.265-0.66h4.988v0.66c0.546-0.372 1.32-0.66 2.323-0.66h4.578zM34.905 23.871c1.577 0 3.183-0.43 3.183-2.581 0-2.093-1.635-2.523-3.069-2.523h-5.878l-2.38 2.523-2.236-2.523h-7.427v7.67h7.312l2.351-2.509 2.266 2.509h3.556v-2.566h2.322zM46.001 23.556c-0.172-0.23-0.487-0.516-0.946-0.66 0.516-0.172 1.318-0.832 1.318-2.036 0-0.889-0.315-1.377-0.917-1.721-0.602-0.315-1.319-0.372-2.266-0.372h-4.215v7.67h1.864v-2.796h1.978c0.66 0 1.032 0.058 1.319 0.344 0.316 0.373 0.316 1.032 0.316 1.548v0.903h1.836v-1.477c0-0.688-0.058-1.032-0.288-1.405zM53.571 20.373v-1.605h-6.136v7.67h6.136v-1.563h-4.33v-1.549h4.244v-1.548h-4.244v-1.405h4.33zM58.245 26.438c1.864 0 2.926-0.759 2.926-2.393 0-0.774-0.23-1.262-0.545-1.664-0.459-0.372-1.119-0.602-2.151-0.602h-1.004c-0.258 0-0.487-0.057-0.717-0.115-0.201-0.086-0.373-0.258-0.373-0.545 0-0.258 0.058-0.43 0.287-0.602 0.143-0.115 0.373-0.115 0.717-0.115h3.383v-1.634h-3.671c-1.978 0-2.638 1.204-2.638 2.294 0 2.438 2.151 2.322 3.842 2.38 0.344 0 0.544 0.058 0.66 0.173 0.115 0.086 0.23 0.315 0.23 0.544 0 0.201-0.115 0.373-0.23 0.488-0.173 0.115-0.373 0.172-0.717 0.172h-3.555v1.62h3.555zM65.442 26.439c1.864 0 2.924-0.76 2.924-2.394 0-0.774-0.229-1.262-0.544-1.664-0.459-0.372-1.119-0.602-2.151-0.602h-1.003c-0.258 0-0.488-0.057-0.718-0.115-0.201-0.086-0.373-0.258-0.373-0.545 0-0.258 0.115-0.43 0.287-0.602 0.144-0.115 0.373-0.115 0.717-0.115h3.383v-1.634h-3.671c-1.921 0-2.638 1.204-2.638 2.294 0 2.438 2.151 2.322 3.842 2.38 0.344 0 0.544 0.058 0.66 0.174 0.115 0.086 0.229 0.315 0.229 0.544 0 0.201-0.114 0.373-0.229 0.488s-0.373 0.172-0.717 0.172h-3.556v1.62h3.556zM43.966 20.518c0.23 0.115 0.373 0.344 0.373 0.659 0 0.344-0.143 0.602-0.373 0.774-0.287 0.115-0.545 0.115-0.889 0.115l-2.237 0.058v-1.749h2.237c0.344 0 0.659 0 0.889 0.143zM36.108 8.646c-0.287 0.172-0.544 0.172-0.918 0.172h-2.265v-1.692h2.265c0.316 0 0.688 0 0.918 0.114 0.23 0.144 0.344 0.374 0.344 0.718 0 0.315-0.114 0.602-0.344 0.689zM50.789 6.839l1.262 3.039h-2.523zM30.775 25.792l-2.838-3.183 2.838-3.011v6.193zM35.019 20.373c0.66 0 1.090 0.258 1.090 0.918s-0.43 1.032-1.090 1.032h-2.437v-1.95h2.437zM5.773 9.878l1.291-3.039 1.262 3.039h-2.552zM18.905 20.372l4.616 0 2.036 2.237-2.093 2.265h-4.559v-1.549h4.071v-1.548h-4.071v-1.405zM19.077 13.376l-0.545 1.377h-3.24l-0.546-1.319v1.319h-6.222l-0.66-1.749h-1.577l-0.717 1.749h-5.572l2.389-5.649 2.237-5.104h4.789l0.659 1.262v-1.262h5.591l1.262 2.724 1.233-2.724h17.835c0.832 0 1.548 0.143 2.093 0.602v-0.602h4.903v0.602c0.803-0.459 1.864-0.602 3.068-0.602h7.082l0.66 1.262v-1.262h5.218l0.775 1.262v-1.262h5.103v10.753h-5.161l-1.003-1.635v1.635h-6.423l-0.717-1.749h-1.577l-0.717 1.749h-3.355c-1.318 0-2.294-0.316-2.954-0.659v0.659h-7.971v-2.466c0-0.344-0.057-0.402-0.286-0.402h-0.258v2.867h-15.398v-1.377zM43.363 6.409c-0.832 0.831-0.975 1.864-1.004 3.011 0 1.377 0.344 2.266 0.947 2.925 0.659 0.66 1.806 0.86 2.695 0.86h2.151l0.716-1.692h3.843l0.717 1.692h3.727v-5.763l3.47 5.763h2.638v-7.684h-1.892v5.333l-3.24-5.333h-2.839v7.254l-3.096-7.254h-2.724l-2.638 6.050h-0.832c-0.487 0-1.003-0.115-1.262-0.373-0.344-0.402-0.488-1.004-0.488-1.836 0-0.803 0.144-1.405 0.488-1.748 0.373-0.316 0.774-0.431 1.434-0.431h1.749v-1.663h-1.749c-1.262 0-2.265 0.286-2.81 0.889zM39.579 5.52v7.684h1.863v-7.684h-1.863zM31.12 5.52l-0 7.685h1.806v-2.781h1.979c0.66 0 1.090 0.057 1.376 0.315 0.316 0.401 0.258 1.061 0.258 1.491v0.975h1.892v-1.519c0-0.66-0.057-1.004-0.344-1.377-0.172-0.229-0.487-0.488-0.889-0.659 0.516-0.23 1.319-0.832 1.319-2.036 0-0.889-0.373-1.377-0.976-1.75-0.602-0.344-1.262-0.344-2.208-0.344h-4.215zM23.636 5.521v7.685h6.165v-1.577h-4.301v-1.549h4.244v-1.577h-4.244v-1.377h4.301v-1.606h-6.165zM16.124 13.205h1.577l2.695-6.021v6.021h1.864v-7.684h-3.011l-2.265 5.219-2.409-5.219h-2.953v7.254l-3.154-7.254h-2.724l-3.297 7.684h1.978l0.688-1.692h3.871l0.688 1.692h3.756v-6.021z"/>
    </symbol>
    <symbol viewBox="0 0 95 32" id="icon-logo-discover">
        <path d="M50.431 8.059c4.546 0 8.092 3.49 8.092 7.936 0 4.471-3.571 7.961-8.093 7.961-4.638 0-8.115-3.444-8.115-8.051 0-4.334 3.635-7.845 8.115-7.845zM4.362 8.345c4.811 0 8.168 3.133 8.168 7.64 0 2.247-1.028 4.422-2.761 5.864-1.461 1.214-3.126 1.761-5.429 1.761h-4.339v-15.265h4.362zM7.832 19.81c1.027-0.912 1.639-2.379 1.639-3.847 0-1.464-0.612-2.882-1.639-3.798-0.984-0.892-2.146-1.235-4.065-1.235h-0.797v10.096h0.797c1.919 0 3.127-0.367 4.065-1.216zM13.9 23.611v-15.265h2.965v15.265h-2.965zM24.123 14.201c3.378 1.238 4.379 2.338 4.379 4.764 0 2.952-2.166 5.015-5.247 5.015-2.261 0-3.904-0.896-5.271-2.907l1.914-1.856c0.685 1.328 1.825 2.036 3.24 2.036 1.325 0 2.308-0.915 2.308-2.152 0-0.641-0.298-1.189-0.891-1.578-0.297-0.187-0.889-0.46-2.054-0.87-2.784-1.010-3.742-2.085-3.742-4.192 0-2.493 2.055-4.371 4.745-4.371 1.667 0 3.196 0.571 4.473 1.696l-1.549 2.033c-0.778-0.867-1.508-1.233-2.398-1.233-1.28 0-2.213 0.732-2.213 1.694 0 0.821 0.525 1.258 2.307 1.921zM29.438 15.986c0-4.436 3.605-7.985 8.101-7.985 1.278 0 2.352 0.273 3.653 0.935v3.504c-1.233-1.213-2.308-1.717-3.72-1.717-2.787 0-4.976 2.313-4.976 5.241 0 3.092 2.123 5.267 5.112 5.267 1.347 0 2.397-0.48 3.585-1.671v3.504c-1.347 0.638-2.443 0.892-3.72 0.892-4.519 0-8.034-3.478-8.034-7.97zM65.239 18.601l4.11-10.254h3.216l-6.573 15.655h-1.596l-6.46-15.655h3.24zM73.914 23.612v-15.265h8.418v2.585h-5.453v3.388h5.244v2.585h-5.244v4.123h5.453v2.584h-8.418zM94.081 12.852c0 2.336-1.23 3.87-3.469 4.329l4.794 6.43h-3.651l-4.105-6.135h-0.388v6.135h-2.969v-15.265h4.404c3.425 0 5.384 1.645 5.384 4.506zM88.125 15.372c1.9 0 2.903-0.827 2.903-2.359 0-1.486-1.004-2.266-2.856-2.266h-0.911v4.626h0.863z"/>
    </symbol>
    <symbol viewBox="0 0 435.97 173.13" id="icon-logo-googlepay">
        <path d="M206.2,84.58v50.75H190.1V10h42.7a38.61,38.61,0,0,1,27.65,10.85A34.88,34.88,0,0,1,272,47.3a34.72,34.72,0,0,1-11.55,26.6q-11.2,10.68-27.65,10.67H206.2Zm0-59.15V69.18h27a21.28,21.28,0,0,0,15.93-6.48,21.36,21.36,0,0,0,0-30.63,21,21,0,0,0-15.93-6.65h-27Z"/>
        <path d="M309.1,46.78q17.85,0,28.18,9.54T347.6,82.48v52.85H332.2v-11.9h-.7q-10,14.7-26.6,14.7-14.17,0-23.71-8.4a26.82,26.82,0,0,1-9.54-21q0-13.31,10.06-21.17t26.86-7.88q14.34,0,23.62,5.25V81.25A18.33,18.33,0,0,0,325.54,67,22.8,22.8,0,0,0,310,61.13q-13.49,0-21.35,11.38l-14.18-8.93Q286.17,46.78,309.1,46.78Zm-20.83,62.3a12.86,12.86,0,0,0,5.34,10.5,19.64,19.64,0,0,0,12.51,4.2,25.67,25.67,0,0,0,18.11-7.52q8-7.53,8-17.67-7.53-6-21-6-9.81,0-16.36,4.73C290.46,100.52,288.27,104.41,288.27,109.08Z"/>
        <path d="M436,49.58,382.24,173.13H365.62l19.95-43.23L350.22,49.58h17.5l25.55,61.6h.35l24.85-61.6Z"/>
        <path d="M141.14,73.64A85.79,85.79,0,0,0,139.9,59H72V86.73h38.89a33.33,33.33,0,0,1-14.38,21.88v18h23.21C133.31,114.08,141.14,95.55,141.14,73.64Z"/>
        <path d="M72,144c19.43,0,35.79-6.38,47.72-17.38l-23.21-18C90.05,113,81.73,115.5,72,115.5c-18.78,0-34.72-12.66-40.42-29.72H7.67v18.55A72,72,0,0,0,72,144Z"/>
        <path d="M31.58,85.78a43.14,43.14,0,0,1,0-27.56V39.67H7.67a72,72,0,0,0,0,64.66Z"/>
        <path d="M72,28.5A39.09,39.09,0,0,1,99.62,39.3h0l20.55-20.55A69.18,69.18,0,0,0,72,0,72,72,0,0,0,7.67,39.67L31.58,58.22C37.28,41.16,53.22,28.5,72,28.5Z"/>
    </symbol>
    <symbol viewBox="0 0 49.866 49.866" id="icon-logo-klarna">
        <path d="M13.201 18.265h-1.658c-.415.001-.454.042-.454.462v12.291c0 .343.059.4.397.402.542.003 1.085 0 1.629 0 .511 0 .558-.045.558-.549V20.438v-1.715c-.001-.389-.073-.457-.472-.458zM2.339 18.266a85.129 85.129 0 0 0-1.516.001c-.53.008-.823.31-.823.842v11.866c0 .349.047.396.397.396.514.004 1.029.004 1.543 0 .54-.004.811-.273.811-.81V18.695c.001-.347-.072-.426-.412-.429zM9.724 31.072c-.147-1.464-.68-2.763-1.705-3.836-1.104-1.154-2.462-1.789-3.943-1.936-.478-.009-.482-.009-.469.352.005.133.031.264.051.396.265 1.755 1.123 3.153 2.551 4.198.936.688 1.995 1.045 3.148 1.153.343.033.401.009.367-.327zM9.365 18.298c-.131.021-.267.013-.397.033-1.502.239-2.777.904-3.791 2.043-.929 1.042-1.445 2.271-1.567 3.659-.031.362-.011.363.37.412.523-.129 1.067-.208 1.567-.398 2.497-.948 3.863-2.788 4.178-5.428.04-.335-.016-.373-.36-.321zM22.763 24.496c-.038-1.457-.867-2.432-2.269-2.777-1.555-.386-3.096-.16-4.629.167-.182.038-.257.169-.253.36.008.341.002.685.002 1.028 0 .489.064.513.548.484a52.359 52.359 0 0 1 2.964-.098c.59 0 .948.333 1.046.867.031.166.019.342.019.513.002.663.001.669-.653.661-.914-.009-1.825.021-2.71.289-.914.274-1.571.815-1.769 1.789a4.336 4.336 0 0 0 .039 1.896c.212.875.742 1.471 1.608 1.729.962.283 1.915.242 2.83-.201.262-.127.511-.283.804-.446.012.091.021.137.023.184.022.43.076.484.512.484.514.001 1.028.002 1.543 0 .299-.002.405-.097.404-.388-.013-2.181-.002-4.363-.059-6.541zm-2.825 4.912c-.56.217-1.126.334-1.727.23-.374-.064-.648-.286-.68-.666a3.803 3.803 0 0 1 .06-1.044c.073-.362.339-.627.702-.673.592-.073 1.191-.089 1.787-.11.053-.002.154.127.159.201.019.294.008.59.008.885 0 .23-.018.46.005.687.03.264-.073.398-.314.49zM48.592 20.968v.075h.21v.613h.09v-.613h.21v-.075zM49.823 20.968h-.119l-.123.333c-.029.087-.055.162-.072.232h-.001c-.021-.072-.042-.148-.07-.232l-.117-.333h-.113l-.047.688h.084l.02-.296a9.67 9.67 0 0 0 .013-.304h.002c.021.081.047.17.079.267l.112.329h.067l.121-.335c.035-.095.062-.181.086-.261h.002c0 .084.006.202.013.297l.016.303h.09l-.043-.688zM39.115 25.146a7.65 7.65 0 0 0-.18-1.557c-.225-1.055-.83-1.798-1.941-1.992-1.213-.215-2.369-.043-3.41.663-.102.068-.204.13-.379.241-.008-.205-.02-.332-.022-.461-.008-.336-.066-.399-.404-.401-.537-.003-1.069-.004-1.602.001-.314.002-.408.1-.408.413v8.918c0 .349.094.445.436.447.591.002 1.182-.006 1.773.005.264.003.383-.101.378-.372-.01-.59-.003-1.18-.003-1.772 0-1.572-.003-3.144.006-4.716 0-.13.034-.325.121-.379.656-.404 1.36-.652 2.143-.522.431.071.733.324.814.769.057.308.1.621.1.933.012 1.869.006 3.736.006 5.604 0 .407.047.452.464.452.534.003 1.069.003 1.602 0 .461 0 .514-.051.514-.502 0-1.922.013-3.846-.008-5.772zM48.216 25.035a5.978 5.978 0 0 0-.06-.884c-.178-1.14-.789-1.954-1.896-2.323a5.778 5.778 0 0 0-1.446-.293c-1.164-.073-2.314.066-3.453.323-.25.058-.355.194-.354.438v.943c0 .506.07.545.562.519.98-.055 1.959-.099 2.938-.105.632-.002.986.323 1.093.948.048.28.022.571.037.854.01.188-.079.25-.259.244-.41-.006-.825-.041-1.229.008-.695.082-1.4.162-2.072.35-.891.251-1.469.874-1.615 1.812-.059.389-.049.793-.03 1.189.076 1.608 1.303 2.664 2.908 2.534.811-.063 1.575-.256 2.239-.751.045-.032.102-.05.164-.078.029.044.047.055.049.073a.87.87 0 0 1 .017.144c.022.415.049.44.475.44.496.003.99.003 1.486 0 .399 0 .448-.045.448-.438.001-1.982.003-3.965-.002-5.947zm-2.519 3.974c.007.182-.071.278-.23.349-.585.259-1.186.392-1.829.287-.463-.079-.734-.393-.726-.975.015-.989.233-1.436 1.436-1.527.359-.028.724.001 1.085-.007.203-.009.268.086.264.274-.009.276-.004.554-.004.828.002.256-.008.512.004.771zM29.692 21.877c.001-.255-.113-.364-.366-.354a3.64 3.64 0 0 0-2.018.701c-.082.06-.164.115-.287.203-.01-.137-.021-.218-.021-.3-.008-.41-.08-.486-.481-.486-.517-.002-1.029-.001-1.544-.001-.471.001-.549.077-.549.546v8.718c0 .422.093.516.494.516.542.003 1.087.003 1.63 0 .438 0 .508-.066.508-.518.001-2.113.003-4.229-.004-6.347 0-.209.061-.328.253-.419.636-.299 1.288-.523 2.003-.494.262.011.389-.088.383-.365a34.39 34.39 0 0 1-.001-1.4z"/>
    </symbol>
    <symbol viewBox="0 0 54 32" id="icon-logo-mastercard">
        <path d="M48.366 15.193c0.6 0 0.9 0.437 0.9 1.282 0 1.281-0.546 2.209-1.337 2.209-0.6 0-0.9-0.436-0.9-1.31 0-1.281 0.573-2.182 1.337-2.182zM38.276 18.275c0-0.655 0.491-1.009 1.472-1.009 0.109 0 0.191 0.027 0.382 0.027-0.027 0.982-0.545 1.636-1.227 1.636-0.382 0-0.628-0.245-0.628-0.655zM26.278 15.848c0 0.082-0 0.192-0 0.327h-1.909c0.164-0.763 0.545-1.173 1.091-1.173 0.518 0 0.818 0.3 0.818 0.845zM38.060 0.002c8.838 0 16.003 7.165 16.003 16.002s-7.165 15.999-16.003 15.999c-3.834 0-7.324-1.344-10.080-3.594 2.102-2.031 3.707-4.567 4.568-7.44h-1.33c-0.833 2.553-2.297 4.807-4.199 6.627-1.892-1.816-3.342-4.078-4.172-6.62h-1.33c0.858 2.856 2.435 5.401 4.521 7.432-2.749 2.219-6.223 3.594-10.036 3.594-8.837 0-16.002-7.163-16.002-15.999s7.164-16.001 16.002-16.001c3.814 0 7.287 1.377 10.036 3.603-2.087 2.023-3.664 4.568-4.521 7.424h1.33c0.83-2.542 2.28-4.804 4.172-6.607 1.903 1.808 3.367 4.060 4.199 6.614h1.33c-0.861-2.872-2.466-5.413-4.568-7.443 2.757-2.249 6.246-3.592 10.080-3.592zM7.217 20.213h1.691l1.336-8.044h-2.672l-1.637 4.99-0.082-4.99h-2.454l-1.336 8.044h1.582l1.037-6.135 0.136 6.135h1.173l2.209-6.189zM14.47 19.477l0.054-0.408 0.382-2.318c0.109-0.736 0.136-0.982 0.136-1.309 0-1.254-0.791-1.909-2.263-1.909-0.627 0-1.2 0.082-2.045 0.327l-0.246 1.473 0.163-0.028 0.246-0.081c0.382-0.109 0.928-0.164 1.418-0.164 0.79 0 1.091 0.164 1.091 0.6 0 0.109 0 0.191-0.055 0.409-0.273-0.027-0.518-0.054-0.709-0.054-1.909 0-2.999 0.927-2.999 2.536 0 1.064 0.627 1.773 1.554 1.773 0.791 0 1.364-0.246 1.8-0.791l-0.027 0.682h1.418l0.027-0.164 0.027-0.246zM17.988 16.314c-0.736-0.327-0.819-0.409-0.819-0.709 0-0.355 0.3-0.519 0.845-0.519 0.328 0 0.791 0.028 1.227 0.082l0.246-1.5c-0.436-0.082-1.118-0.137-1.5-0.137-1.909 0-2.59 1.009-2.563 2.208 0 0.818 0.382 1.391 1.282 1.828 0.709 0.327 0.818 0.436 0.818 0.709 0 0.409-0.3 0.6-0.982 0.6-0.518 0-0.982-0.082-1.527-0.245l-0.246 1.5 0.082 0.027 0.3 0.054c0.109 0.027 0.246 0.055 0.464 0.055 0.382 0.054 0.709 0.054 0.928 0.054 1.8 0 2.645-0.682 2.645-2.181 0-0.9-0.354-1.418-1.2-1.828zM21.75 18.741c-0.409 0-0.573-0.136-0.573-0.464 0-0.082 0-0.164 0.027-0.273l0.463-2.726h0.873l0.218-1.609h-0.873l0.191-0.982h-1.691l-0.737 4.472-0.082 0.518-0.109 0.654c-0.027 0.191-0.055 0.409-0.055 0.573 0 0.954 0.491 1.445 1.364 1.445 0.382 0 0.764-0.055 1.227-0.218l0.218-1.445c-0.109 0.054-0.273 0.054-0.464 0.054zM25.732 18.851c-0.982 0-1.5-0.381-1.5-1.145 0-0.055 0-0.109 0.027-0.191h3.382c0.163-0.682 0.218-1.145 0.218-1.636 0-1.446-0.9-2.373-2.318-2.373-1.718 0-2.973 1.663-2.973 3.899 0 1.936 0.982 2.945 2.89 2.945 0.628 0 1.173-0.082 1.773-0.273l0.273-1.636c-0.6 0.3-1.145 0.409-1.773 0.409zM31.158 15.524h0.109c0.164-0.79 0.382-1.363 0.655-1.881l-0.055-0.027h-0.164c-0.573 0-0.9 0.273-1.418 1.064l0.164-1.009h-1.554l-1.064 6.544h1.718c0.627-4.008 0.791-4.69 1.609-4.69zM36.122 20.133l0.3-1.827c-0.545 0.273-1.036 0.409-1.445 0.409-1.009 0-1.609-0.737-1.609-1.963 0-1.773 0.9-3.027 2.182-3.027 0.491 0 0.928 0.136 1.528 0.436l0.3-1.745c-0.163-0.054-0.218-0.082-0.436-0.163l-0.682-0.164c-0.218-0.054-0.491-0.082-0.791-0.082-2.263 0-3.845 2.018-3.845 4.88 0 2.155 1.146 3.491 3 3.491 0.463 0 0.872-0.082 1.5-0.246zM41.521 19.069l0.355-2.318c0.136-0.736 0.136-0.982 0.136-1.309 0-1.254-0.763-1.909-2.236-1.909-0.627 0-1.2 0.082-2.045 0.327l-0.246 1.473 0.164-0.028 0.218-0.081c0.382-0.109 0.955-0.164 1.446-0.164 0.791 0 1.091 0.164 1.091 0.6 0 0.109-0.027 0.191-0.082 0.409-0.246-0.027-0.491-0.054-0.682-0.054-1.909 0-3 0.927-3 2.536 0 1.064 0.627 1.773 1.555 1.773 0.791 0 1.363-0.246 1.8-0.791l-0.028 0.682h1.418v-0.164l0.027-0.246 0.054-0.327zM43.648 20.214c0.627-4.008 0.791-4.69 1.608-4.69h0.109c0.164-0.79 0.382-1.363 0.655-1.881l-0.055-0.027h-0.164c-0.572 0-0.9 0.273-1.418 1.064l0.164-1.009h-1.554l-1.037 6.544h1.691zM48.829 20.214l1.608 0 1.309-8.044h-1.691l-0.382 2.291c-0.464-0.6-0.955-0.9-1.637-0.9-1.5 0-2.782 1.854-2.782 4.035 0 1.636 0.818 2.7 2.073 2.7 0.627 0 1.118-0.218 1.582-0.709zM11.306 18.279c0-0.655 0.492-1.009 1.447-1.009 0.136 0 0.218 0.027 0.382 0.027-0.027 0.982-0.518 1.636-1.228 1.636-0.382 0-0.6-0.245-0.6-0.655z"/>
    </symbol>
    <symbol viewBox="0 0 57 32" id="icon-logo-paypal">
        <path d="M47.11 10.477c2.211-0.037 4.633 0.618 4.072 3.276l-1.369 6.263h-3.159l0.211-0.947c-1.72 1.712-6.038 1.821-5.335-2.111 0.491-2.294 2.878-3.023 6.423-3.023 0.246-1.020-0.457-1.274-1.65-1.238s-2.633 0.437-3.089 0.655l0.281-2.293c0.913-0.182 2.106-0.583 3.615-0.583zM47.32 16.885c0.069-0.291 0.106-0.547 0.176-0.838h-0.773c-0.596 0-1.579 0.146-1.931 0.765-0.456 0.728 0.177 1.348 0.878 1.311 0.807-0.037 1.474-0.401 1.65-1.238zM53.883 8h3.242l-2.646 12.016h-3.209zM39.142 8.037c1.689 0 3.729 1.274 3.131 4.077-0.528 2.476-2.498 3.933-4.89 3.933h-2.428l-0.879 3.969h-3.412l2.603-11.979h5.874zM39.037 12.114c0.211-0.911-0.317-1.638-1.197-1.638h-1.689l-0.704 3.277h1.583c0.88 0 1.795-0.728 2.006-1.638zM16.346 10.476c2.184-0.037 4.611 0.618 4.056 3.276l-1.352 6.262h-3.155l0.208-0.947c-1.664 1.712-5.929 1.821-5.235-2.111 0.486-2.294 2.844-3.023 6.345-3.023 0.208-1.020-0.485-1.274-1.664-1.238s-2.601 0.437-3.017 0.655l0.277-2.293c0.867-0.182 2.046-0.583 3.537-0.583zM16.589 16.885c0.035-0.291 0.104-0.547 0.173-0.838h-0.797c-0.555 0-1.525 0.146-1.872 0.765-0.451 0.728 0.138 1.348 0.832 1.311 0.797-0.037 1.491-0.401 1.664-1.238zM28.528 10.648l3.255-0-7.496 13.351h-3.528l2.306-3.925-1.289-9.426h3.156l0.508 5.579zM8.499 8.036c1.728 0 3.738 1.274 3.139 4.077-0.529 2.476-2.504 3.933-4.867 3.933h-2.468l-0.847 3.969h-3.456l2.609-11.979h5.89zM8.393 12.114c0.247-0.911-0.317-1.638-1.164-1.638h-1.693l-0.741 3.277h1.623c0.882 0 1.763-0.728 1.975-1.638z"/>
    </symbol>
    <symbol viewBox="0 0 26 26" id="icon-logo-small">
        <path d="M17.647 12.125h-3.323c-.11 0-.197.087-.197.194v2.327c0 .107.087.193.197.193h3.323c.95 0 1.542-.524 1.542-1.357 0-.795-.594-1.358-1.543-1.358zm-2.62-2.423h3.233c2.51 0 3.988 1.57 3.988 3.296 0 1.35-.915 2.345-1.885 2.78-.155.07-.15.283.01.346 1.128.443 1.94 1.623 1.94 3 0 1.96-1.305 3.512-3.837 3.512h-6.96c-.11 0-.197-.087-.197-.194v-9.03L.237 24.49c-.51.508-.148 1.378.57 1.378h24.254c.446 0 .808-.362.808-.808V.81c0-.72-.87-1.08-1.38-.572L15.03 9.702zm-.703 7.562c-.11 0-.197.087-.197.194v2.56c0 .106.087.193.197.193h3.44c1.05 0 1.682-.542 1.682-1.472 0-.815-.593-1.474-1.68-1.474h-3.442z" fill="#000" fill-rule="evenodd"/>
    </symbol>
    <symbol viewBox="0 0 49 32" id="icon-logo-visa">
        <path d="M14.059 10.283l4.24-0-6.302 15.472-4.236 0.003-3.259-12.329c2.318 0.952 4.379 3.022 5.219 5.275l0.42 2.148zM17.416 25.771l2.503-15.501h4.001l-2.503 15.501h-4.002zM31.992 16.494c2.31 1.106 3.375 2.444 3.362 4.211-0.032 3.217-2.765 5.295-6.97 5.295-1.796-0.020-3.526-0.394-4.459-0.826l0.56-3.469 0.515 0.246c1.316 0.579 2.167 0.814 3.769 0.814 1.151 0 2.385-0.476 2.396-1.514 0.007-0.679-0.517-1.165-2.077-1.924-1.518-0.74-3.53-1.983-3.505-4.211 0.024-3.012 2.809-5.116 6.765-5.116 1.55 0 2.795 0.339 3.586 0.651l-0.542 3.36-0.359-0.178c-0.74-0.314-1.687-0.617-2.995-0.595-1.568 0-2.293 0.689-2.293 1.333-0.010 0.728 0.848 1.204 2.246 1.923zM46.199 10.285l3.239 15.49h-3.714s-0.368-1.782-0.488-2.322c-0.583 0-4.667-0.008-5.125-0.008-0.156 0.42-0.841 2.331-0.841 2.331h-4.205l5.944-14.205c0.419-1.011 1.138-1.285 2.097-1.285h3.093zM41.263 20.274c0.781 0 2.698 0 3.322 0-0.159-0.775-0.927-4.474-0.927-4.474l-0.27-1.337c-0.202 0.581-0.554 1.52-0.531 1.479 0 0-1.262 3.441-1.594 4.332zM9.723 18.702c-1.648-4.573-5.284-6.991-9.723-8.109l0.053-0.322h6.453c0.87 0.034 1.573 0.326 1.815 1.308z"/>
    </symbol>
    <symbol viewBox="0 0 34 32" id="icon-pinterest">
        <path fill="currentColor" d="M1.356 15.647c0 6.24 3.781 11.6 9.192 13.957-0.043-1.064-0.008-2.341 0.267-3.499 0.295-1.237 1.976-8.303 1.976-8.303s-0.491-0.973-0.491-2.411c0-2.258 1.319-3.945 2.962-3.945 1.397 0 2.071 1.041 2.071 2.288 0 1.393-0.895 3.477-1.356 5.408-0.385 1.616 0.817 2.935 2.424 2.935 2.909 0 4.869-3.708 4.869-8.101 0-3.34-2.267-5.839-6.39-5.839-4.658 0-7.56 3.447-7.56 7.297 0 1.328 0.394 2.264 1.012 2.989 0.284 0.333 0.324 0.467 0.221 0.849-0.074 0.28-0.243 0.955-0.313 1.223-0.102 0.386-0.417 0.524-0.769 0.381-2.145-0.869-3.145-3.201-3.145-5.822 0-4.329 3.679-9.519 10.975-9.519 5.863 0 9.721 4.21 9.721 8.729 0 5.978-3.349 10.443-8.285 10.443-1.658 0-3.217-0.889-3.751-1.899 0 0-0.892 3.511-1.080 4.189-0.325 1.175-0.963 2.349-1.546 3.264 1.381 0.405 2.84 0.625 4.352 0.625 8.48 0 15.355-6.822 15.355-15.238s-6.876-15.238-15.355-15.238c-8.48 0-15.356 6.822-15.356 15.238z"/>
    </symbol>
    <symbol viewBox="0 0 26 28" id="icon-print">
        <path fill="currentColor" d="M0 21.5v-6.5q0-1.234 0.883-2.117t2.117-0.883h1v-8.5q0-0.625 0.438-1.062t1.062-0.438h10.5q0.625 0 1.375 0.313t1.188 0.75l2.375 2.375q0.438 0.438 0.75 1.188t0.313 1.375v4h1q1.234 0 2.117 0.883t0.883 2.117v6.5q0 0.203-0.148 0.352t-0.352 0.148h-3.5v2.5q0 0.625-0.438 1.062t-1.062 0.438h-15q-0.625 0-1.062-0.438t-0.438-1.062v-2.5h-3.5q-0.203 0-0.352-0.148t-0.148-0.352zM6 24h14v-4h-14v4zM6 14h14v-6h-2.5q-0.625 0-1.062-0.438t-0.438-1.062v-2.5h-10v10zM22 15q0 0.406 0.297 0.703t0.703 0.297 0.703-0.297 0.297-0.703-0.297-0.703-0.703-0.297-0.703 0.297-0.297 0.703z"/>
    </symbol>
    <symbol viewBox="0 0 24 24" id="icon-remove">
        <path d="M19 13H5v-2h14v2z"/>
    </symbol>
    <symbol viewBox="0 0 32 32" id="icon-rss">
        <path d="M-0.465347858,2.01048219 C-0.465347858,2.01048219 28.7009958,0.574406533 31,31.3201126 L25.1092027,31.3201126 C25.1092027,31.3201126 26.2597741,8.90749482 -0.465347858,6.89506416 L-0.465347858,2.01048219 L-0.465347858,2.01048219 Z M-0.465347858,12.2127144 C-0.465347858,12.2127144 16.6328276,11.6363594 19.9369779,31.3201126 L14.0472499,31.3201126 C14.0472499,31.3201126 13.3297467,19.6839434 -0.465347858,17.0940884 L-0.465347858,12.2127144 L-0.465347858,12.2127144 Z M2.73614917,25.0304648 C4.79776783,25.0304648 6.47229834,26.7007181 6.47229834,28.766614 C6.47229834,30.8282326 4.79776783,32.5016938 2.73614917,32.5016938 C0.6723919,32.5016938 -1,30.8293019 -1,28.766614 C-1,26.7017874 0.6723919,25.0304648 2.73614917,25.0304648 Z" id="rss-Shape"/>
    </symbol>
    <symbol viewBox="0 0 26 28" id="icon-star">
        <path d="M0 10.109q0-0.578 0.875-0.719l7.844-1.141 3.516-7.109q0.297-0.641 0.766-0.641t0.766 0.641l3.516 7.109 7.844 1.141q0.875 0.141 0.875 0.719 0 0.344-0.406 0.75l-5.672 5.531 1.344 7.812q0.016 0.109 0.016 0.313 0 0.328-0.164 0.555t-0.477 0.227q-0.297 0-0.625-0.187l-7.016-3.687-7.016 3.687q-0.344 0.187-0.625 0.187-0.328 0-0.492-0.227t-0.164-0.555q0-0.094 0.031-0.313l1.344-7.812-5.688-5.531q-0.391-0.422-0.391-0.75z"/>
    </symbol>
    <symbol viewBox="0 0 32 32" id="icon-stumbleupon">
        <mask id="stumbleupon-mask-2">
            <use href="#path-1"/>
        </mask>
        <path d="M31.9250667,16.0373333 C31.9250667,24.8533333 24.7784,32 15.9624,32 C7.14666667,32 0,24.8533333 0,16.0373333 C0,7.2216 7.14666667,0.0749333333 15.9624,0.0749333333 C24.7784,0.0749333333 31.9250667,7.2216 31.9250667,16.0373333 Z M21.9205547,16.3600826 L21.9205547,18.9857015 C21.9205547,19.5214765 21.494073,19.9558236 20.968,19.9558236 C20.441927,19.9558236 20.0154453,19.5214765 20.0154453,18.9857015 L20.0154453,16.4101275 L18.1823358,16.9675798 L16.9525547,16.3839008 L16.9525547,18.9383327 C16.9717372,21.1844666 18.7659562,23 20.976146,23 C23.1984234,23 25,21.1651979 25,18.9019364 L25,16.3600826 L21.9205547,16.3600826 Z M16.9525547,14.2429415 L18.1823358,14.8266205 L20.0154453,14.2691683 L20.0154453,12.9736203 C19.9505401,10.7684323 18.1810219,9 16,9 C13.8268613,9 12.0618102,10.7555866 11.9845547,12.9492669 L11.9845547,18.8684839 C11.9845547,19.404259 11.558073,19.8386061 11.032,19.8386061 C10.505927,19.8386061 10.0794453,19.404259 10.0794453,18.8684839 L10.0794453,16.3600826 L7,16.3600826 L7,18.9019364 C7,21.1651979 8.80131387,23 11.0235912,23 C13.2264234,23 15.0119708,21.1965095 15.0429781,18.9608128 L15.0474453,13.114656 C15.0474453,12.578881 15.473927,12.1445339 16,12.1445339 C16.526073,12.1445339 16.9525547,12.578881 16.9525547,13.114656 L16.9525547,14.2429415 Z" id="stumbleupon-Fill-1" mask="url(#stumbleupon-mask-2)"/>
    </symbol>
    <symbol viewBox="0 0 32 32" id="icon-tumblr">
        <path fill="currentColor" d="M23.852762,25.5589268 C23.2579209,25.8427189 22.1195458,26.089634 21.2697728,26.1120809 C18.7092304,26.1810247 18.2121934,24.3131275 18.1897466,22.9566974 L18.1897466,12.9951133 L24.6159544,12.9951133 L24.6159544,8.15140729 L18.2137967,8.15140729 L18.2137967,0 L13.5256152,0 C13.4486546,0 13.3139736,0.0673405008 13.2963368,0.238898443 C13.0221648,2.73370367 11.8533261,7.11243957 7,8.86168924 L7,12.9951133 L10.2387574,12.9951133 L10.2387574,23.4521311 C10.2387574,27.0307977 12.8794671,32.1166089 19.8508122,31.9979613 C22.2013164,31.9578777 24.8131658,30.9718204 25.3919735,30.1236507 L23.852762,25.5589268"/>
    </symbol>
    <symbol viewBox="0 0 43 32" id="icon-twitter">
        <path fill="currentColor" d="M36.575 5.229c1.756-0.952 3.105-2.46 3.74-4.257-1.644 0.882-3.464 1.522-5.402 1.867-1.551-1.495-3.762-2.429-6.209-2.429-4.697 0-8.506 3.445-8.506 7.694 0 0.603 0.075 1.19 0.22 1.753-7.069-0.321-13.337-3.384-17.532-8.039-0.732 1.136-1.152 2.458-1.152 3.868 0 2.669 1.502 5.024 3.784 6.404-1.394-0.040-2.706-0.386-3.853-0.962-0.001 0.032-0.001 0.064-0.001 0.097 0 3.728 2.932 6.837 6.823 7.544-0.714 0.176-1.465 0.27-2.241 0.27-0.548 0-1.081-0.048-1.6-0.138 1.083 3.057 4.224 5.281 7.946 5.343-2.911 2.064-6.579 3.294-10.564 3.294-0.687 0-1.364-0.036-2.029-0.108 3.764 2.183 8.235 3.457 13.039 3.457 15.646 0 24.202-11.724 24.202-21.891 0-0.334-0.008-0.665-0.025-0.995 1.662-1.085 3.104-2.439 4.244-3.982-1.525 0.612-3.165 1.025-4.885 1.211z"/>
    </symbol>
    <symbol viewBox="0 0 32 32" id="icon-youtube">
        <path fill="currentColor" d="M31.6634051,8.8527593 C31.6634051,8.8527593 31.3509198,6.64879843 30.3919217,5.67824658 C29.1757339,4.40441487 27.8125088,4.39809002 27.1873503,4.32353816 C22.7118278,4 15.9983092,4 15.9983092,4 L15.984407,4 C15.984407,4 9.27104501,4 4.79536595,4.32353816 C4.17017613,4.39809002 2.80745205,4.40441487 1.59082583,5.67824658 C0.631890411,6.64879843 0.319843444,8.8527593 0.319843444,8.8527593 C0.319843444,8.8527593 0,11.4409393 0,14.0290881 L0,16.4554834 C0,19.0436008 0.319843444,21.6317495 0.319843444,21.6317495 C0.319843444,21.6317495 0.631890411,23.8357417 1.59082583,24.8062935 C2.80745205,26.0801566 4.40557339,26.0398591 5.11736986,26.1733699 C7.67602348,26.4187241 15.9913894,26.4946536 15.9913894,26.4946536 C15.9913894,26.4946536 22.7118278,26.4845401 27.1873503,26.1610333 C27.8125088,26.0864501 29.1757339,26.0801566 30.3919217,24.8062935 C31.3509198,23.8357417 31.6634051,21.6317495 31.6634051,21.6317495 C31.6634051,21.6317495 31.9827789,19.0436008 31.9827789,16.4554834 L31.9827789,14.0290881 C31.9827789,11.4409393 31.6634051,8.8527593 31.6634051,8.8527593 Z M12.6895342,19.39582 L12.6880626,10.4095186 L21.3299413,14.9183249 L12.6895342,19.39582 Z" id="youtube-Imported-Layers"/>
    </symbol>

    <symbol viewBox="0 0 448 512" id="icon-user" class="svg-inline--fa fa-user fa-w-18 fa-2x">
        <path fill="currentColor" d="M224 256c70.7 0 128-57.3 128-128S294.7 0 224 0 96 57.3 96 128s57.3 128 128 128zm89.6 32h-16.7c-22.2 10.2-46.9 16-72.9 16s-50.6-5.8-72.9-16h-16.7C60.2 288 0 348.2 0 422.4V464c0 26.5 21.5 48 48 48h352c26.5 0 48-21.5 48-48v-41.6c0-74.2-60.2-134.4-134.4-134.4z" class=""></path>
    </symbol>
    <svg viewBox="0 0 576 512" id="icon-shopping-cart" class="svg-inline--fa fa-shopping-cart fa-w-18 fa-2x">
        <path fill="currentColor" d="M528.12 301.319l47.273-208C578.806 78.301 567.391 64 551.99 64H159.208l-9.166-44.81C147.758 8.021 137.93 0 126.529 0H24C10.745 0 0 10.745 0 24v16c0 13.255 10.745 24 24 24h69.883l70.248 343.435C147.325 417.1 136 435.222 136 456c0 30.928 25.072 56 56 56s56-25.072 56-56c0-15.674-6.447-29.835-16.824-40h209.647C430.447 426.165 424 440.326 424 456c0 30.928 25.072 56 56 56s56-25.072 56-56c0-22.172-12.888-41.332-31.579-50.405l5.517-24.276c3.413-15.018-8.002-29.319-23.403-29.319H218.117l-6.545-32h293.145c11.206 0 20.92-7.754 23.403-18.681z" class=""></path>
    </svg>
    <symbol id="icon-alignleft" viewBox="0 0 1024 1024" class="svg-inline--fa fa-align-left fa-w-14">
        <path  class="path1" d="M896 307.2h-768c-14.138 0-25.6-11.462-25.6-25.6s11.462-25.6 25.6-25.6h768c14.139 0 25.6 11.462 25.6 25.6s-11.461 25.6-25.6 25.6z"></path><path class="path2" d="M896 563.2h-768c-14.138 0-25.6-11.461-25.6-25.6s11.462-25.6 25.6-25.6h768c14.139 0 25.6 11.461 25.6 25.6s-11.461 25.6-25.6 25.6z"></path><path class="path3" d="M896 819.2h-768c-14.138 0-25.6-11.461-25.6-25.6s11.462-25.6 25.6-25.6h768c14.139 0 25.6 11.461 25.6 25.6s-11.461 25.6-25.6 25.6z"></path>
    </symbol>
    <symbol id="icon-caret-circle-down" data-icon="caret-circle-down" viewBox="0 0 512 512" class="svg-inline--fa fa-caret-circle-down fa-w-16 fa-3x">
        <path fill="currentColor" d="M157.1 216h197.8c10.7 0 16.1 13 8.5 20.5l-98.9 98.3c-4.7 4.7-12.2 4.7-16.9 0l-98.9-98.3c-7.7-7.5-2.3-20.5 8.4-20.5zM504 256c0 137-111 248-248 248S8 393 8 256 119 8 256 8s248 111 248 248zm-48 0c0-110.5-89.5-200-200-200S56 145.5 56 256s89.5 200 200 200 200-89.5 200-200z" class=""></path>
    </symbol>
    <symbol id="icon-alignright" viewBox="0 0 448 512" class="svg-inline--fa fa-align-right fa-w-14">
        <path fill="currentColor" d="M16 216h416a16 16 0 0 0 16-16v-16a16 16 0 0 0-16-16H16a16 16 0 0 0-16 16v16a16 16 0 0 0 16 16zm416 208H16a16 16 0 0 0-16 16v16a16 16 0 0 0 16 16h416a16 16 0 0 0 16-16v-16a16 16 0 0 0-16-16zm3.17-384H172.83A12.82 12.82 0 0 0 160 52.83v22.34A12.82 12.82 0 0 0 172.83 88h262.34A12.82 12.82 0 0 0 448 75.17V52.83A12.82 12.82 0 0 0 435.17 40zm0 256H172.83A12.82 12.82 0 0 0 160 308.83v22.34A12.82 12.82 0 0 0 172.83 344h262.34A12.82 12.82 0 0 0 448 331.17v-22.34A12.82 12.82 0 0 0 435.17 296z" class=""></path>
    </symbol>
    <symbol id="icon-shopping-cart2" viewBox="0 0 24 24">
        <path fill="currentColor" d="M20.756 5.345c-0.191-0.219-0.466-0.345-0.756-0.345h-13.819l-0.195-1.164c-0.080-0.482-0.497-0.836-0.986-0.836h-2.25c-0.553 0-1 0.447-1 1s0.447 1 1 1h1.403l1.86 11.164c0.008 0.045 0.031 0.082 0.045 0.124 0.016 0.053 0.029 0.103 0.054 0.151 0.032 0.066 0.075 0.122 0.12 0.179 0.031 0.039 0.059 0.078 0.095 0.112 0.058 0.054 0.125 0.092 0.193 0.13 0.038 0.021 0.071 0.049 0.112 0.065 0.116 0.047 0.238 0.075 0.367 0.075 0.001 0 11.001 0 11.001 0 0.553 0 1-0.447 1-1s-0.447-1-1-1h-10.153l-0.166-1h11.319c0.498 0 0.92-0.366 0.99-0.858l1-7c0.041-0.288-0.045-0.579-0.234-0.797zM18.847 7l-0.285 2h-3.562v-2h3.847zM14 7v2h-3v-2h3zM14 10v2h-3v-2h3zM10 7v2h-3c-0.053 0-0.101 0.015-0.148 0.030l-0.338-2.030h3.486zM7.014 10h2.986v2h-2.653l-0.333-2zM15 12v-2h3.418l-0.285 2h-3.133z"></path>
        <path fill="currentColor" d="M10 19.5c0 0.828-0.672 1.5-1.5 1.5s-1.5-0.672-1.5-1.5c0-0.828 0.672-1.5 1.5-1.5s1.5 0.672 1.5 1.5z"></path>
        <path fill="currentColor" d="M19 19.5c0 0.828-0.672 1.5-1.5 1.5s-1.5-0.672-1.5-1.5c0-0.828 0.672-1.5 1.5-1.5s1.5 0.672 1.5 1.5z"></path>
    </symbol>
    <symbol id="icon-stats-bars" viewBox="0 0 32 32">
        <path d="M0 26h32v4h-32zM4 18h4v6h-4zM10 10h4v14h-4zM16 16h4v8h-4zM22 4h4v20h-4z"></path>
    </symbol>
    <symbol id="icon-square-right" viewBox="0 0 448 512">
        <path d="M0 80v352c0 26.5 21.5 48 48 48h352c26.5 0 48-21.5 48-48V80c0-26.5-21.5-48-48-48H48C21.5 32 0 53.5 0 80zm400-16c8.8 0 16 7.2 16 16v352c0 8.8-7.2 16-16 16H48c-8.8 0-16-7.2-16-16V80c0-8.8 7.2-16 16-16h352zm-96.4 200.5l-115.1 115c-4.7 4.7-12.3 4.7-17 0l-7.1-7.1c-4.7-4.7-4.7-12.3 0-17L264 256l-99.5-99.5c-4.7-4.7-4.7-12.3 0-17l7.1-7.1c4.7-4.7 12.3-4.7 17 0l115.1 115c4.5 4.8 4.5 12.4-.1 17.1z" class=""></path>
    </symbol>
    <symbol id="icon-calendar" data-icon="calendar" role="img" viewBox="0 0 448 512" class="svg-inline--fa fa-calendar fa-w-14 fa-2x">
        <path fill="currentColor" d="M400 64h-48V12c0-6.6-5.4-12-12-12h-40c-6.6 0-12 5.4-12 12v52H160V12c0-6.6-5.4-12-12-12h-40c-6.6 0-12 5.4-12 12v52H48C21.5 64 0 85.5 0 112v352c0 26.5 21.5 48 48 48h352c26.5 0 48-21.5 48-48V112c0-26.5-21.5-48-48-48zm-6 400H54c-3.3 0-6-2.7-6-6V160h352v298c0 3.3-2.7 6-6 6z" class=""></path>
    </symbol>
    <symbol  id="icon-sign-out" viewBox="0 0 512 512" class="svg-inline--fa fa-sign-out-alt fa-w-16 fa-2x">
        <path fill="currentColor" d="M497 273L329 441c-15 15-41 4.5-41-17v-96H152c-13.3 0-24-10.7-24-24v-96c0-13.3 10.7-24 24-24h136V88c0-21.4 25.9-32 41-17l168 168c9.3 9.4 9.3 24.6 0 34zM192 436v-40c0-6.6-5.4-12-12-12H96c-17.7 0-32-14.3-32-32V160c0-17.7 14.3-32 32-32h84c6.6 0 12-5.4 12-12V76c0-6.6-5.4-12-12-12H96c-53 0-96 43-96 96v192c0 53 43 96 96 96h84c6.6 0 12-5.4 12-12z" class=""></path>
    </symbol>
    <svg  id="icon-search" viewBox="0 0 512 512" >
        <path fill="currentColor" d="M508.5 481.6l-129-129c-2.3-2.3-5.3-3.5-8.5-3.5h-10.3C395 312 416 262.5 416 208 416 93.1 322.9 0 208 0S0 93.1 0 208s93.1 208 208 208c54.5 0 104-21 141.1-55.2V371c0 3.2 1.3 6.2 3.5 8.5l129 129c4.7 4.7 12.3 4.7 17 0l9.9-9.9c4.7-4.7 4.7-12.3 0-17zM208 384c-97.3 0-176-78.7-176-176S110.7 32 208 32s176 78.7 176 176-78.7 176-176 176z" class=""></path>
    </svg>
    <svg  id="icon-times" viewBox="0 0 512 512" >
        <path fill="currentColor" d="M256 8C119 8 8 119 8 256s111 248 248 248 248-111 248-248S393 8 256 8zm0 448c-110.5 0-200-89.5-200-200S145.5 56 256 56s200 89.5 200 200-89.5 200-200 200zm101.8-262.2L295.6 256l62.2 62.2c4.7 4.7 4.7 12.3 0 17l-22.6 22.6c-4.7 4.7-12.3 4.7-17 0L256 295.6l-62.2 62.2c-4.7 4.7-12.3 4.7-17 0l-22.6-22.6c-4.7-4.7-4.7-12.3 0-17l62.2-62.2-62.2-62.2c-4.7-4.7-4.7-12.3 0-17l22.6-22.6c4.7-4.7 12.3-4.7 17 0l62.2 62.2 62.2-62.2c4.7-4.7 12.3-4.7 17 0l22.6 22.6c4.7 4.7 4.7 12.3 0 17z" class=""></path>
    </svg>
    <svg id="icon-heart"  viewBox="0 0 512 512" class="svg-inline--fa fa-heart fa-w-16 fa-2x">
        <path fill="currentColor" d="M462.3 62.6C407.5 15.9 326 24.3 275.7 76.2L256 96.5l-19.7-20.3C186.1 24.3 104.5 15.9 49.7 62.6c-62.8 53.6-66.1 149.8-9.9 207.9l193.5 199.8c12.5 12.9 32.8 12.9 45.3 0l193.5-199.8c56.3-58.1 53-154.3-9.8-207.9z" class=""></path>
    </svg>
    <svg  id="icon-plus-circle" aria-hidden="true" focusable="false" data-prefix="fal" data-icon="plus-circle"  viewBox="0 0 512 512" >
        <path fill="currentColor" d="M384 250v12c0 6.6-5.4 12-12 12h-98v98c0 6.6-5.4 12-12 12h-12c-6.6 0-12-5.4-12-12v-98h-98c-6.6 0-12-5.4-12-12v-12c0-6.6 5.4-12 12-12h98v-98c0-6.6 5.4-12 12-12h12c6.6 0 12 5.4 12 12v98h98c6.6 0 12 5.4 12 12zm120 6c0 137-111 248-248 248S8 393 8 256 119 8 256 8s248 111 248 248zm-32 0c0-119.9-97.3-216-216-216-119.9 0-216 97.3-216 216 0 119.9 97.3 216 216 216 119.9 0 216-97.3 216-216z" class=""></path>
    </svg>

    <svg id="icon-plus" aria-hidden="true" focusable="false" data-prefix="fas" data-icon="plus" role="img"  viewBox="0 0 384 512">
        <path fill="currentColor" d="M368 224H224V80c0-8.84-7.16-16-16-16h-32c-8.84 0-16 7.16-16 16v144H16c-8.84 0-16 7.16-16 16v32c0 8.84 7.16 16 16 16h144v144c0 8.84 7.16 16 16 16h32c8.84 0 16-7.16 16-16V288h144c8.84 0 16-7.16 16-16v-32c0-8.84-7.16-16-16-16z" class=""></path>
    </svg>
    <svg  id="icon-minus-circle" aria-hidden="true" focusable="false" data-prefix="fal" data-icon="plus-circle"  viewBox="0 0 512 512" >
        <path fill="currentColor" d="M140 274c-6.6 0-12-5.4-12-12v-12c0-6.6 5.4-12 12-12h232c6.6 0 12 5.4 12 12v12c0 6.6-5.4 12-12 12H140zm364-18c0 137-111 248-248 248S8 393 8 256 119 8 256 8s248 111 248 248zm-32 0c0-119.9-97.3-216-216-216-119.9 0-216 97.3-216 216 0 119.9 97.3 216 216 216 119.9 0 216-97.3 216-216z" class=""></path>
    </svg>
    <symbol  id="icon-shopping-bag" x="0px" y="0px" viewBox="0 0 605.5 512" enable-background="new 0 0 605.5 512" xml:space="preserve">
        <path fill="currentColor" d="M203.917,120.259c0,0.086,0.012,0.168,0.013,0.254h-0.013v9.129c0,52.904,43.04,95.944,95.944,95.944   c52.902,0,95.944-43.04,95.944-95.944v-9.129h-0.012c0.001-0.086,0.012-0.168,0.012-0.254c0-9.526-7.722-17.248-17.248-17.248   c-9.525,0-17.248,7.722-17.248,17.248c0,0.086,0.012,0.168,0.013,0.254h-0.011v9.129c0,33.88-27.567,61.444-61.45,61.444   c-33.885,0-61.452-27.564-61.452-61.444v-9.129h-0.008c0.001-0.086,0.012-0.168,0.012-0.254c0-9.526-7.722-17.248-17.248-17.248   C211.64,103.011,203.917,110.733,203.917,120.259z"/>
        <path fill="currentColor" d="M543.479,439.003l-20.672-234.474L510.229,61.967c-2.913-33.009-30.096-57.9-63.231-57.9h-38.372v0.021h-61.123h-9.84   h-9.839h-49.43c-0.137-0.003-0.271-0.021-0.409-0.021c-10.917,0-19.768,8.85-19.768,19.767c0,10.917,8.851,19.767,19.768,19.767   h49.839h9.839h9.84h61.123h0.614h37.758c12.277,0,22.511,9.206,23.802,21.381c0.008,0.166,0.018,0.331,0.032,0.497l33.264,376.998   c0.598,6.786-1.598,13.281-6.184,18.288c-4.584,5.006-10.859,7.763-17.67,7.763H119.48c-6.814,0-13.091-2.759-17.678-7.769   c-4.582-5.004-6.773-11.498-6.173-18.282l33.263-377.013c1.102-12.452,11.356-21.842,23.852-21.842h38.373v-0.021h7.668   c10.917,0,19.767-8.85,19.767-19.767c0-10.917-8.85-19.767-19.767-19.767c-0.138,0-0.271,0.018-0.409,0.021h-7.259h-0.984h-37.389   c-33.137,0-60.32,24.891-63.23,57.898l-33.27,377.017c-1.56,17.678,4.43,35.335,16.43,48.44c12,13.104,29.061,20.618,46.807,20.618   h360.762c17.745,0,34.806-7.515,46.809-20.62C539.049,474.336,545.038,456.68,543.479,439.003z"/>
    </symbol>
    <symbol viewBox="0 0 576 512" id="icon-star-light">
        <path fill="currentColor" d="M528.1 171.5L382 150.2 316.7 17.8c-11.7-23.6-45.6-23.9-57.4 0L194 150.2 47.9 171.5c-26.2 3.8-36.7 36.1-17.7 54.6l105.7 103-25 145.5c-4.5 26.3 23.2 46 46.4 33.7L288 439.6l130.7 68.7c23.2 12.2 50.9-7.4 46.4-33.7l-25-145.5 105.7-103c19-18.5 8.5-50.8-17.7-54.6zM405.8 317.9l27.8 162L288 403.5 142.5 480l27.8-162L52.5 203.1l162.7-23.6L288 32l72.8 147.5 162.7 23.6-117.7 114.8z" class=""></path>
    </symbol>
    <symbol id="icon-layers" viewBox="0 0 1024 1024">
        <path fill="currentColor" d="M22 302l475 259q7 3 15 3q4 0 8-1t7-2l481-259q17-9 16-29q0-9-4.5-16.5T1007 245L532 4q-15-7-29 0L23 245q-8 4-13 11.5T5 273q0 20 17 29zM517 68l406 207l-411 221l-406-221zm484 412l-95-48l-68 37l80 41l-411 221l-406-221l85-43l-68-37l-101 50Q0 489-.5 508.5T16 537l475 259q8 4 16 4q4 0 7.5-1t7.5-3l480-259q17-9 17-28.5t-18-28.5zm0 224l-90-44l-68 37l75 37l-411 221l-406-221l79-36l-68-37l-95 43Q0 713-.5 732.5T16 761l475 259q3 1 5.5 2t5 1.5t5.5.5q4 0 7.5-1t7.5-3l480-259q17-9 17-28.5t-18-28.5z"  />
    </symbol>
    <symbol id="icon-eye" viewBox="0 0 1056 896" >
        <path fill="currentColor" d="M531 257q-39 0-74.5 15.5t-61 41t-41 61T339 449t15.5 75t41 61.5t61 40.5t74.5 15q53 0 97-25.5t69.5-69.5t25.5-97q0-79-56-135.5T531 257zm0 320q-34 0-64-17.5t-47.5-47T402 448q0-26 10-49.5t27.5-41t41-27.5t49.5-10q53 0 90.5 37.5T658 448t-37 91t-90 38zm509-136q0-1-.5-2.5t-.5-2.5t-.5-1.5l-.5-.5v-1l-1-2q-68-157-206-246.5T530 95q-107 0-206 39T144.5 249.5T18 431v2.5l-1 1.5v3l-1 2q-1 6-1 9q0 2 .5 4t.5 4q0 1 1 3v2l.5 1.5l.5.5v3q69 157 207.5 245.5T528 801q107 0 205.5-38.5T912 648t125-181q1 0 1-1v-1.5l.5-1l.5-.5v-3l1-2q1-6 1-9q0-2-.5-4t-.5-4zM528 737q-142 0-263-74.5T81 449q63-139 185-214.5T530 159q92 0 176.5 32T862 289.5T975 449q-63 139-184 213.5T528 737z" />
    </symbol>

    <symbol id="icon-map-marker-alt" aria-hidden="true" focusable="false" data-prefix="fal" data-icon="map-marker-alt" role="img"  viewBox="0 0 384 512" >
        <path fill="currentColor" d="M192 96c-52.935 0-96 43.065-96 96s43.065 96 96 96 96-43.065 96-96-43.065-96-96-96zm0 160c-35.29 0-64-28.71-64-64s28.71-64 64-64 64 28.71 64 64-28.71 64-64 64zm0-256C85.961 0 0 85.961 0 192c0 77.413 26.97 99.031 172.268 309.67 9.534 13.772 29.929 13.774 39.465 0C357.03 291.031 384 269.413 384 192 384 85.961 298.039 0 192 0zm0 473.931C52.705 272.488 32 256.494 32 192c0-42.738 16.643-82.917 46.863-113.137S149.262 32 192 32s82.917 16.643 113.137 46.863S352 149.262 352 192c0 64.49-20.692 80.47-160 281.931z" class=""></path>
    </symbol>
    <symbol id="icon-phone"  enable-background="0 0 512 512" version="1.1" viewBox="0 0 512 512" xml:space="preserve" xmlns="http://www.w3.org/2000/svg">
            <path fill="currentColor" d="M493.09 351.3L384.7 304.8a31.36 31.36 0 0 0-36.5 8.9l-44.1 53.9A350 350 0 0 1 144.5 208l53.9-44.1a31.35 31.35 0 0 0 8.9-36.49l-46.5-108.5A31.33 31.33 0 0 0 125 .81L24.2 24.11A31.05 31.05 0 0 0 0 54.51C0 307.8 205.3 512 457.49 512A31.23 31.23 0 0 0 488 487.7L511.19 387a31.21 31.21 0 0 0-18.1-35.7zM456.89 480C222.4 479.7 32.3 289.7 32.1 55.21l99.6-23 46 107.39-72.8 59.5C153.3 302.3 209.4 358.6 313 407.2l59.5-72.8 107.39 46z" class=""></path>
    </symbol>

    <symbol  id="icon-wishlist" x="0px" y="0px"  viewBox="0 0 605.5 512" enable-background="new 0 0 605.5 512" xml:space="preserve">
        <path display="none" d="M392,511.963H120c-66.168,0-120-53.832-120-120V223.692c0-37.191,17.655-72.86,47.226-95.415l136-103.729  c42.849-32.681,102.699-32.681,145.548,0L372,57.488V31.963c1.056-26.536,38.953-26.516,40,0v65.911  c0,7.603-4.311,14.548-11.125,17.923c-6.814,3.374-14.951,2.592-20.998-2.015l-75.355-57.423  c-28.571-21.792-68.474-21.792-97.039-0.005l-136,103.729C51.77,175.118,40,198.897,40,223.692v168.271c0,44.112,35.888,80,80,80  h272c44.112,0,80-35.888,80-80V223.692c0-25.099-11.637-48.959-31.129-63.827c-8.783-6.699-10.472-19.249-3.773-28.031  c6.699-8.783,19.25-10.472,28.031-3.773C494.478,150.445,512,186.195,512,223.692v168.271C512,458.131,458.168,511.963,392,511.963z   M216,230.963c-13.807,0-25,11.193-25,25c1.321,33.17,48.691,33.145,50,0C241,242.155,229.807,230.963,216,230.963z M321,255.962  c-1.321,33.17-48.691,33.146-50,0C272.32,222.792,319.691,222.818,321,255.962z M241,335.962c-1.321,33.17-48.691,33.146-50,0  C192.321,302.792,239.691,302.818,241,335.962z M321,335.962c-1.321,33.17-48.691,33.146-50,0  C272.32,302.792,319.691,302.818,321,335.962z"/>
                <path d="M655.913,395.714"/>
                <g display="none">
            <path display="inline" d="M158.343,118.031c0,0.087,0.012,0.171,0.013,0.258h-0.013v9.279c0,53.771,43.746,97.518,97.518,97.518   c53.771,0,97.519-43.746,97.519-97.518v-9.279h-0.013c0.001-0.087,0.013-0.171,0.013-0.258c0-9.682-7.849-17.531-17.531-17.531   c-9.682,0-17.531,7.849-17.531,17.531c0,0.087,0.012,0.171,0.013,0.258h-0.011v9.279c0,34.436-28.02,62.452-62.458,62.452   c-34.439,0-62.459-28.016-62.459-62.452v-9.279h-0.009c0.001-0.087,0.013-0.171,0.013-0.258c0-9.682-7.849-17.531-17.531-17.531   C166.193,100.5,158.343,108.349,158.343,118.031z"/>
                    <path display="inline" d="M503.475,442.004l-21.011-238.32l-12.784-144.9c-2.961-33.55-30.589-58.85-64.269-58.85H366.41v0.021   h-62.126h-10.001h-10h-50.241c-0.14-0.003-0.275-0.021-0.416-0.021c-11.097,0-20.092,8.995-20.092,20.091   s8.995,20.091,20.092,20.091h50.657h10h10.001h62.126h0.624h38.377c12.479,0,22.88,9.357,24.192,21.731   c0.008,0.168,0.018,0.336,0.033,0.505l33.809,383.181c0.607,6.897-1.623,13.499-6.284,18.588   c-4.659,5.088-11.038,7.891-17.96,7.891H72.521c-6.926,0-13.306-2.805-17.968-7.896c-4.657-5.086-6.885-11.687-6.274-18.582   L82.087,62.337c1.12-12.656,11.542-22.2,24.243-22.2h39.002v-0.021h7.794c11.096,0,20.091-8.995,20.091-20.091   s-8.995-20.091-20.091-20.091c-0.141,0-0.276,0.018-0.416,0.021h-7.378h-1h-38.002c-33.681,0-61.31,25.299-64.268,58.848   L8.248,442.004c-1.585,17.968,4.503,35.914,16.699,49.234c12.196,13.319,29.537,20.957,47.574,20.957h366.68   c18.036,0,35.376-7.639,47.576-20.959C498.973,477.916,505.06,459.971,503.475,442.004z"/>
        </g>
        <path fill="currentColor"  d="M587.98,159.404c-2.178-40.706-19.413-78.93-48.531-107.63C509.865,22.617,471.227,6.56,430.649,6.56  c-56.863,0-103.472,40.903-128.177,68.111C278.53,47.439,232.726,6.56,173.603,6.56c-40.576,0-79.215,16.058-108.794,45.215  c-29.115,28.697-46.349,66.922-48.53,107.632c-2.155,40.391,8.087,75.407,33.212,113.539  c38.652,58.646,231.525,220.933,239.716,227.812c3.683,3.094,8.361,4.798,13.177,4.798c4.481,0,8.909-1.501,12.465-4.227  l17.283-13.253l15.366-11.783c8.962-6.873,10.663-19.757,3.789-28.72c-3.907-5.098-9.836-8.021-16.266-8.021  c-4.539,0-8.847,1.463-12.453,4.23l-17.422,13.358l-2.123,1.627c-37.473-31.925-188.898-162.2-219.322-208.364  c-19.993-30.345-28.17-57.736-26.513-88.812C60.557,98.696,112.78,47.526,173.603,47.526c62.807,0,111.011,70.45,111.473,71.135  c3.744,5.641,10.02,9.063,16.783,9.153l0.296,0.002c6.65,0,12.908-3.25,16.74-8.695c0.505-0.717,51.27-71.596,111.752-71.596  c60.827,0,113.052,51.171,116.421,114.069c1.685,31.421-6.246,57.986-26.516,88.825c-2.844,4.327-20.997,23.103-46.182,48.018  c-14.932,14.77-32.332,31.695-50.484,49.05c-0.786,0.752-1.476,1.564-2.115,2.402c-12.148,11.911-25.475,24.819-39.235,37.976  c-8.16,7.809-8.448,20.8-0.646,28.96c3.899,4.08,9.157,6.327,14.804,6.328c0.001,0,0.002,0,0.002,0  c5.299,0,10.326-2.016,14.157-5.679c9.996-9.558,30.658-29.409,50.933-49.459l-0.055-0.056  c10.966-10.543,26.292-25.376,41.405-40.322c23.401-23.145,46.285-46.555,51.65-54.712  C571.695,247.202,590.749,211.052,587.98,159.404z"/>
</symbol>
<symbol id="icon-signin" x="0px" y="0px" viewBox="0 0 512 512" style="enable-background:new 0 0 512 512;" xml:space="preserve">
	<g><path fill="currentColor" d="M510.702,438.722c-2.251-10.813-12.84-17.754-23.657-15.503c-10.814,2.251-17.755,12.843-15.503,23.656    c1.297,6.229-0.248,12.613-4.236,17.519c-2.31,2.841-7.461,7.606-15.999,7.606H60.693c-8.538,0-13.689-4.766-15.999-7.606    c-3.989-4.905-5.533-11.29-4.236-17.519c20.756-99.695,108.691-172.521,210.24-174.977c1.759,0.068,3.526,0.102,5.302,0.102    c1.782,0,3.556-0.035,5.322-0.103c71.532,1.716,137.648,37.947,177.687,97.66c6.151,9.175,18.574,11.625,27.75,5.474    c9.174-6.151,11.625-18.575,5.473-27.749c-32.817-48.944-80.47-84.534-134.804-102.417C370.538,220.036,392,180.477,392,136    C392,61.01,330.991,0,256,0S120,61.01,120,136c0,44.504,21.488,84.084,54.633,108.911c-30.368,9.998-58.863,25.555-83.803,46.069    c-45.732,37.617-77.529,90.086-89.532,147.742c-3.762,18.067,0.745,36.623,12.363,50.909C25.222,503.847,42.365,512,60.693,512    h390.613c18.329,0,35.472-8.153,47.032-22.369C509.958,475.345,514.464,456.789,510.702,438.722z M160,136    c0-52.935,43.065-96,96-96s96,43.065,96,96c0,51.305-40.455,93.339-91.141,95.878c-1.617-0.03-3.237-0.045-4.859-0.045    c-1.614,0-3.228,0.016-4.84,0.046C200.465,229.35,160,187.312,160,136z"/></g>
</symbol>


</svg>
